HIERARCHY
ROOT hip
{
	OFFSET 0.000000 0.000000 0.000000 
	CHANNELS 6 Xposition Yposition Zposition Xrotation Zrotation Yrotation
	JOINT abdomen
	{
		OFFSET 0.000000 3.402643 0.000000 
		CHANNELS 3 Xrotation Zrotation Yrotation
		JOINT chest
		{
			OFFSET 0.000000 8.438565 -0.680529 
			CHANNELS 3 Xrotation Zrotation Yrotation
			JOINT neck
			{
				OFFSET 0.000000 10.207942 -0.272212 
				CHANNELS 3 Xrotation Zrotation Yrotation
				JOINT head
				{
					OFFSET 0.000000 3.130431 0.000000 
					CHANNELS 3 Xrotation Zrotation Yrotation
					End Site
					{
						OFFSET 0.000000 3.130435 0.000000 
					}
				}
			}
			JOINT lCollar
			{
				OFFSET 3.470700 6.669187 -0.816635 
				CHANNELS 3 Yrotation Zrotation Xrotation
				JOINT lShldr
				{
					OFFSET 3.198488 0.000000 0.000000 
					CHANNELS 3 Zrotation Yrotation Xrotation
					JOINT lForeArm
					{
						OFFSET 10.139888 0.000000 0.000000 
						CHANNELS 3 Yrotation Zrotation Xrotation
						JOINT lHand
						{
							OFFSET 8.370511 0.000000 0.000000 
							CHANNELS 3 Zrotation Yrotation Xrotation
							End Site
							{
								OFFSET 4.083176 0.000000 0.000000 
							}
						}
					}
				}
			}
			JOINT rCollar
			{
				OFFSET -3.470700 6.669187 -0.816635 
				CHANNELS 3 Yrotation Zrotation Xrotation
				JOINT rShldr
				{
					OFFSET -3.198488 0.000000 0.000000 
					CHANNELS 3 Zrotation Yrotation Xrotation
					JOINT rForeArm
					{
						OFFSET -10.139888 0.000000 0.000000 
						CHANNELS 3 Yrotation Zrotation Xrotation
						JOINT rHand
						{
							OFFSET -8.370511 0.000000 0.000000 
							CHANNELS 3 Zrotation Yrotation Xrotation
							End Site
							{
								OFFSET -4.083176 0.000000 0.000000 
							}
						}
					}
				}
			}
		}
	}
	JOINT lThigh
	{
		OFFSET 5.308129 -1.633274 1.361059 
		CHANNELS 3 Xrotation Zrotation Yrotation
		JOINT lShin
		{
			OFFSET -2.041588 -20.007561 0.000000 
			CHANNELS 3 Xrotation Zrotation Yrotation
			JOINT lFoot
			{
				OFFSET 0.000000 -19.190928 -1.224953 
				CHANNELS 3 Xrotation Yrotation Zrotation
				End Site
				{
					OFFSET 0.000000 -2.449906 4.627600 
				}
			}
		}
	}
	JOINT rThigh
	{
		OFFSET -5.308129 -1.633274 1.361059 
		CHANNELS 3 Xrotation Zrotation Yrotation
		JOINT rShin
		{
			OFFSET 2.041588 -20.007561 0.000000 
			CHANNELS 3 Xrotation Zrotation Yrotation
			JOINT rFoot
			{
				OFFSET 0.000000 -19.190928 -1.224953 
				CHANNELS 3 Xrotation Yrotation Zrotation
				End Site
				{
					OFFSET 0.000000 -2.449906 4.627600 
				}
			}
		}
	}
}
MOTION
Frames: 15
Frame Time: 0.016667
0.962585 48.903526 2.629877 4.687412 0.808825 -9.600574 0.000000 0.000000 0.000000 -12.770944 1.942014 4.152691 3.763845 -3.962628 1.918258 -4.306731 7.371598 -1.142243 -3.521967 9.154817 6.304141 -6.174117 16.328257 -24.033503 -20.717695 9.663897 17.947329 5.501907 5.202646 -8.411128 3.089181 -14.089146 8.026228 7.123096 -9.762049 -21.449514 19.071396 -21.673115 56.439461 5.914413 -13.565228 -9.058043 -7.821208 18.393194 13.684838 19.953623 -6.953074 -8.901400 0.993461 0.574425 -10.726962 -8.640823 -13.325215 -13.866909 7.029309 4.354167 -1.786675 4.944832 -0.094506 3.287911 
0.944448 48.902748 2.629125 4.762361 0.760416 -9.717617 0.000000 0.000000 0.000000 -12.605318 1.997599 4.118032 4.132627 -4.206153 2.104696 -4.453443 7.576711 -1.113194 -3.521967 9.154817 6.304141 -6.315680 16.244061 -23.923044 -20.566938 9.507298 19.076698 5.875296 4.885987 -8.429454 3.089181 -14.089146 8.026228 7.621614 -9.782146 -21.641544 19.272179 -21.626673 56.054626 4.983059 -13.676816 -9.055733 -7.910573 18.437717 13.584983 20.040804 -6.854446 -8.749088 0.923959 0.572712 -10.760921 -8.739115 -13.248520 -13.754333 7.019408 4.334902 -1.827266 4.882029 -0.087972 3.311236 
0.922897 48.900642 2.655261 4.630211 0.663789 -9.902917 0.000000 0.000000 0.000000 -12.360568 2.107656 4.244994 4.186776 -4.351818 2.350327 -4.461770 7.440507 -0.895099 -3.521967 9.154817 6.304141 -6.152073 16.276131 -23.532120 -20.296101 9.201544 18.919245 4.694101 4.971912 -8.357248 3.089181 -14.089146 8.026228 7.877209 -9.751198 -21.602587 19.202251 -21.512997 55.888687 4.603683 -13.475061 -9.030005 -7.704439 18.500717 13.559026 20.080858 -6.770988 -8.613707 0.812988 0.601577 -10.805750 -8.600570 -13.097105 -13.732422 6.995606 4.360804 -1.973860 4.743900 -0.091782 3.290795 
0.901492 48.898392 2.680975 4.510161 0.557649 -10.088359 0.000000 0.000000 0.000000 -12.115840 2.207073 4.363149 4.220464 -4.507142 2.585495 -4.471256 7.313945 -0.678291 -3.521967 9.154817 6.304141 -5.984266 16.297810 -23.141222 -20.031448 8.885570 18.751978 3.512495 5.071826 -8.281722 3.089181 -14.089146 8.026228 8.132858 -9.720804 -21.563808 19.131630 -21.387138 55.740131 4.232049 -13.272785 -9.000008 -7.508302 18.576336 13.549170 20.118250 -6.659961 -8.493308 0.694497 0.612362 -10.878251 -8.465553 -12.965354 -13.720882 6.978872 4.409845 -2.080473 4.606055 -0.094437 3.260421 
0.894005 48.883003 2.662802 4.589380 0.595780 -10.264229 0.000000 0.000000 0.000000 -12.153510 2.194400 4.540897 3.854283 -4.788556 2.959296 -4.253566 7.480196 -0.491754 -3.521967 9.154817 6.304141 -5.779715 16.299421 -23.224810 -19.910187 8.768611 17.512169 1.627114 5.238814 -8.172634 3.089181 -14.089146 8.026228 8.088671 -9.681038 -21.476791 19.160597 -21.489191 57.522221 5.614305 -12.751921 -8.952229 -7.685431 18.572077 13.462976 20.373770 -6.614969 -8.306881 0.544304 0.640248 -10.903716 -8.592058 -12.963808 -13.606374 7.013906 4.311249 -1.516290 4.541099 -0.076034 3.112888 
0.886734 48.867744 2.644848 4.668365 0.633862 -10.439996 0.000000 0.000000 0.000000 -12.200863 2.171999 4.719560 3.494748 -5.059829 3.333198 -4.043188 7.636619 -0.295561 -3.521967 9.154817 6.304141 -5.582081 16.309925 -23.320597 -19.795767 8.665936 16.269625 -0.237422 5.420819 -8.072019 3.089181 -14.089146 8.026228 8.044620 -9.641168 -21.388151 19.187616 -21.582804 59.271980 6.980643 -12.232476 -8.900141 -7.860089 18.566879 13.385692 20.636917 -6.575899 -8.131862 0.365373 0.652897 -10.925281 -8.728443 -12.953510 -13.501341 7.059095 4.227828 -0.893001 4.462302 -0.091909 2.984799 
0.897012 48.867382 2.655622 4.623076 0.614654 -10.439998 0.000000 0.000000 0.000000 -12.289109 2.269224 4.710409 3.424660 -5.030381 3.372110 -4.148323 7.704990 -0.274897 -3.521967 9.154817 6.304141 -5.657063 16.251143 -23.949793 -19.802111 8.754949 15.503211 -0.816704 5.506492 -8.048397 3.089181 -14.089146 8.026228 7.911205 -9.606361 -21.255836 18.967621 -21.510780 58.898941 6.970634 -12.057679 -8.872776 -7.792946 18.591883 13.432509 20.627451 -6.605071 -8.164751 0.382010 0.652829 -10.924844 -8.671865 -12.948977 -13.465612 7.067738 4.168473 -0.748622 4.510481 -0.089322 3.005826 
0.907443 48.867111 2.666490 4.589423 0.585860 -10.430234 0.000000 0.000000 0.000000 -12.377294 2.367366 4.710981 3.354613 -5.000933 3.411024 -4.252079 7.773367 -0.245860 -3.521967 9.154817 6.304141 -5.726377 16.205631 -24.576101 -19.804422 8.854159 14.748762 -1.375532 5.596138 -8.015674 3.089181 -14.089146 8.026228 7.770667 -9.584963 -21.111559 18.754042 -21.429520 58.521492 6.972648 -11.880197 -8.856872 -7.714069 18.599546 13.489437 20.610655 -6.621480 -8.223769 0.415146 0.655292 -10.902054 -8.621576 -12.954522 -13.408727 7.071835 4.096629 -0.604804 4.561458 -0.104215 3.041549 
0.928572 48.871758 2.680182 4.626728 0.711026 -10.293744 0.000000 0.000000 0.000000 -12.641490 2.320231 4.627140 3.407052 -4.991928 3.264248 -4.499563 7.802532 -0.412988 -3.521967 9.154817 6.304141 -5.621202 16.219591 -24.546890 -19.696764 8.782777 14.714384 -0.838690 5.661202 -8.050384 3.089181 -14.089146 8.026228 7.601175 -9.646342 -20.978220 18.622242 -21.427839 58.264206 7.230600 -11.758629 -8.836286 -7.781761 18.457979 13.432616 20.541399 -6.644638 -8.250011 0.483237 0.627821 -10.878902 -8.631335 -13.110606 -13.534946 7.059549 4.161266 -0.710668 4.588932 -0.093162 3.044980 
0.949741 48.876392 2.694012 4.666492 0.826708 -10.147531 0.000000 0.000000 0.000000 -12.905714 2.282818 4.542384 3.451061 -4.973182 3.106895 -4.745780 7.821881 -0.570439 -3.521967 9.154817 6.304141 -5.516013 16.233500 -24.517704 -19.590597 8.708002 14.690536 -0.310265 5.716373 -8.085635 3.089181 -14.089146 8.026228 7.418644 -9.701423 -20.840809 18.499640 -21.430630 58.013954 7.500495 -11.634740 -8.826169 -7.850823 18.325470 13.376713 20.459654 -6.673176 -8.295525 0.553334 0.632952 -10.854053 -8.632145 -13.279330 -13.701140 7.052915 4.214168 -0.786349 4.618221 -0.084762 3.026944 
0.972702 48.879158 2.720127 4.741078 0.903694 -10.118381 0.000000 0.000000 0.000000 -13.189137 2.320792 4.529001 3.380130 -4.623044 2.889582 -4.785125 7.382498 -0.530501 -3.521967 9.154817 6.304141 -5.457539 16.425312 -24.011271 -19.580708 8.700178 14.825489 -0.059735 5.801696 -8.109176 3.089181 -14.089146 8.026228 7.248639 -9.761439 -20.707146 18.383133 -21.405970 57.663475 7.541953 -11.541912 -8.806136 -7.899622 18.199409 13.342285 20.444073 -6.660405 -8.252717 0.512645 0.620111 -10.797533 -8.690145 -13.384909 -13.775720 7.057313 4.265821 -0.832835 4.578104 -0.076247 2.999288 
0.995655 48.881989 2.746382 4.815742 0.980693 -10.089239 0.000000 0.000000 0.000000 -13.472599 2.368489 4.514704 3.307263 -4.272740 2.663414 -4.833747 6.952881 -0.480907 -3.521967 9.154817 6.304141 -5.398874 16.616432 -23.514456 -19.581579 8.686722 14.968762 0.183401 5.876251 -8.122590 3.089181 -14.089146 8.026228 7.067418 -9.825417 -20.560442 18.274914 -21.390198 57.329563 7.586940 -11.457433 -8.796444 -7.947805 18.088102 13.268247 20.398527 -6.682641 -8.173614 0.484380 0.626359 -10.733530 -8.768596 -13.502633 -13.829648 7.075211 4.313324 -0.868264 4.553388 -0.094164 2.972966 
1.017339 48.890015 2.783076 4.884575 0.960934 -10.264998 0.000000 0.000000 0.000000 -13.686740 2.520178 4.667175 3.436110 -4.126181 2.731595 -5.169219 6.855339 -0.353712 -3.521967 9.154817 6.304141 -5.667221 16.741268 -23.680178 -19.821287 8.930901 14.983555 0.427484 6.198395 -8.159137 3.089181 -14.089146 8.026228 7.082716 -9.909445 -20.635609 18.416641 -21.489492 57.462185 7.926111 -11.834547 -8.852779 -7.909531 18.092463 13.292066 20.386089 -6.699600 -8.068669 0.487875 0.624162 -10.755074 -8.846653 -13.454082 -13.796246 7.044598 4.292803 -0.968885 4.655879 -0.082477 3.058210 
1.038875 48.897785 2.819828 4.951919 0.950822 -10.430990 0.000000 0.000000 0.000000 -13.900795 2.672780 4.829369 3.555743 -3.989422 2.789363 -5.496563 6.767522 -0.235044 -3.521967 9.154817 6.304141 -5.939294 16.863991 -23.856253 -20.061092 9.174994 14.999976 0.680867 6.522342 -8.191714 3.089181 -14.089146 8.026228 7.099946 -9.992244 -20.720291 18.563894 -21.580997 57.594143 8.252227 -12.204762 -8.900909 -7.881341 18.106033 13.282404 20.360441 -6.727257 -7.953406 0.507950 0.638265 -10.790992 -8.914990 -13.424514 -13.753441 7.039098 4.286154 -1.038171 4.761641 -0.087716 3.148030 
1.046849 48.880264 2.859919 5.009378 0.892830 -10.557931 0.000000 0.000000 0.000000 -14.007959 2.798608 4.915616 3.488504 -4.027601 3.024523 -5.594203 6.894526 -0.067865 -3.521967 9.154817 6.304141 -6.495584 16.886024 -24.700600 -20.541771 9.759177 14.633205 1.282889 6.859520 -8.238955 3.089181 -14.089146 8.026228 7.360467 -10.094170 -21.091087 18.865490 -21.741386 57.523251 8.196777 -12.445808 -8.942913 -7.910026 18.221874 13.390835 20.538277 -6.757633 -7.898953 0.352895 0.643156 -10.731240 -8.932693 -13.370991 -13.703235 7.033265 4.301568 -0.754746 4.655660 -0.081569 3.058529 
